<?xml version="1.0" encoding="utf-8"?>
<svg id="svg-icons" version="1.1" xmlns="http://www.w3.org/2000/svg" xmlns:xlink="http://www.w3.org/1999/xlink" viewBox="0 0 400 400">

  <g id="icon-arrownav-left" data-viewbox="0 0 42.188 42.188"><g transform="translate(-859.906 -2085.906)"><g transform="translate(859.906 2085.906)" fill="#fff"><path d="M 21.093994140625 41.18811798095703 C 18.38088417053223 41.18811798095703 15.74945449829102 40.65697860717773 13.27281379699707 39.60943984985352 C 10.88015460968018 38.59742736816406 8.731114387512207 37.14842987060547 6.885394096374512 35.30270767211914 C 5.039674282073975 33.45697784423828 3.590684175491333 31.30793952941895 2.578684091567993 28.91526985168457 C 1.531144142150879 26.43861961364746 1.000004172325134 23.80717849731445 1.000004172325134 21.09405899047852 C 1.000004172325134 18.38093948364258 1.531144142150879 15.74949932098389 2.578684091567993 13.27284908294678 C 3.590684175491333 10.8801794052124 5.039674282073975 8.731139183044434 6.885394096374512 6.885408878326416 C 8.731114387512207 5.039689064025879 10.88015460968018 3.590688943862915 13.27281379699707 2.578679084777832 C 15.74945449829102 1.531139016151428 18.38088417053223 0.9999989867210388 21.093994140625 0.9999989867210388 C 23.80710411071777 0.9999989867210388 26.43853378295898 1.531139016151428 28.91518402099609 2.578679084777832 C 31.3078441619873 3.590688943862915 33.45687484741211 5.039689064025879 35.30259323120117 6.885408878326416 C 37.14832305908203 8.731139183044434 38.59731292724609 10.8801794052124 39.60931396484375 13.27284908294678 C 40.65685272216797 15.74949932098389 41.18799591064453 18.38093948364258 41.18799591064453 21.09405899047852 C 41.18799591064453 23.80717849731445 40.65685272216797 26.43861961364746 39.60931396484375 28.91526985168457 C 38.59731292724609 31.30793952941895 37.14832305908203 33.45697784423828 35.30259323120117 35.30270767211914 C 33.45687484741211 37.14842987060547 31.3078441619873 38.59742736816406 28.91518402099609 39.60943984985352 C 26.43853378295898 40.65697860717773 23.80710411071777 41.18811798095703 21.093994140625 41.18811798095703 Z" stroke="none"/><path d="M 21.093994140625 2 C 15.99380493164063 2 11.19888496398926 3.986129760742188 7.592502593994141 7.592517852783203 C 3.986114501953125 11.19890975952148 1.999992370605469 15.99384880065918 1.999992370605469 21.09405899047852 C 1.999992370605469 26.19426918029785 3.986114501953125 30.98920822143555 7.592502593994141 34.59560012817383 C 11.19888496398926 38.20198822021484 15.99380493164063 40.18811798095703 21.093994140625 40.18811798095703 C 26.19418334960938 40.18811798095703 30.98910522460938 38.20198822021484 34.59548568725586 34.59560012817383 C 38.20186614990234 30.98920822143555 40.18798446655273 26.19426918029785 40.18798446655273 21.09405899047852 C 40.18798446655273 15.99384880065918 38.20186614990234 11.19890975952148 34.59548568725586 7.592517852783203 C 30.98910522460938 3.986129760742188 26.19418334960938 2 21.093994140625 2 M 21.093994140625 0 C 32.7438850402832 0 42.18798446655273 9.444129943847656 42.18798446655273 21.09405899047852 C 42.18798446655273 32.74398803710938 32.7438850402832 42.18811798095703 21.093994140625 42.18811798095703 C 9.444103240966797 42.18811798095703 -7.62939453125e-06 32.74398803710938 -7.62939453125e-06 21.09405899047852 C -7.62939453125e-06 9.444129943847656 9.444103240966797 0 21.093994140625 0 Z" stroke="none" fill="#590d2b"/></g><path d="M5680.619,635.467l-10.467,7.827,10.467,7.96" transform="translate(-4795.928 1463.787)" fill="none" stroke="#590d2b" stroke-linejoin="round" stroke-width="2"/></g></g>
  <g id="icon-arrownav-right" data-viewbox="0 0 42.188 42.188"><g transform="translate(-859.906 -2167.906)"><g transform="translate(859.906 2167.906)" fill="#fff"><path d="M 21.093994140625 41.18811416625977 C 18.38088417053223 41.18811416625977 15.74945449829102 40.65697479248047 13.27281379699707 39.60943603515625 C 10.88015460968018 38.5974235534668 8.731114387512207 37.1484260559082 6.885394096374512 35.30270385742188 C 5.039674282073975 33.45697402954102 3.590684175491333 31.30793571472168 2.578684091567993 28.9152660369873 C 1.531144142150879 26.4386157989502 1.000004172325134 23.80717468261719 1.000004172325134 21.09405517578125 C 1.000004172325134 18.38093566894531 1.531144142150879 15.74950504302979 2.578684091567993 13.27285480499268 C 3.590684175491333 10.8801851272583 5.039674282073975 8.731144905090332 6.885394096374512 6.885415077209473 C 8.731114387512207 5.039695262908936 10.88015460968018 3.590695142745972 13.27281379699707 2.578685283660889 C 15.74945449829102 1.531145215034485 18.38088417053223 1.000005125999451 21.093994140625 1.000005125999451 C 23.80710411071777 1.000005125999451 26.43853378295898 1.531145215034485 28.91517448425293 2.578685283660889 C 31.30783462524414 3.590695142745972 33.45687484741211 5.039695262908936 35.30259323120117 6.885415077209473 C 37.1483154296875 8.731144905090332 38.59730529785156 10.8801851272583 39.60931396484375 13.27285480499268 C 40.65685272216797 15.74950504302979 41.18799591064453 18.38093566894531 41.18799591064453 21.09405517578125 C 41.18799591064453 23.80717468261719 40.65685272216797 26.4386157989502 39.60931396484375 28.9152660369873 C 38.59730529785156 31.30793571472168 37.1483154296875 33.45697402954102 35.30259323120117 35.30270385742188 C 33.45687484741211 37.1484260559082 31.30783462524414 38.5974235534668 28.91517448425293 39.60943603515625 C 26.43853378295898 40.65697479248047 23.80710411071777 41.18811416625977 21.093994140625 41.18811416625977 Z" stroke="none"/><path d="M 21.093994140625 1.999996185302734 C 15.99380493164063 1.999996185302734 11.19887351989746 3.986125946044922 7.592494964599609 7.592514038085938 C 3.986114501953125 11.19890594482422 1.999992370605469 15.99384498596191 1.999992370605469 21.09405517578125 C 1.999992370605469 26.19426536560059 3.986114501953125 30.98919486999512 7.592494964599609 34.59558486938477 C 11.19887351989746 38.20197677612305 15.99380493164063 40.18810653686523 21.093994140625 40.18810653686523 C 26.19418334960938 40.18810653686523 30.98910522460938 38.20197677612305 34.59548568725586 34.59558486938477 C 38.20186614990234 30.98919486999512 40.18798446655273 26.19426536560059 40.18798446655273 21.09405517578125 C 40.18798446655273 15.99384498596191 38.20186614990234 11.19890594482422 34.59548568725586 7.592514038085938 C 30.98910522460938 3.986125946044922 26.19418334960938 1.999996185302734 21.093994140625 1.999996185302734 M 21.093994140625 -3.814697265625e-06 C 32.7438850402832 -3.814697265625e-06 42.18798446655273 9.444126129150391 42.18798446655273 21.09405517578125 C 42.18798446655273 32.74397659301758 32.7438850402832 42.18810653686523 21.093994140625 42.18810653686523 C 9.444095611572266 42.18810653686523 -7.62939453125e-06 32.74397659301758 -7.62939453125e-06 21.09405517578125 C -7.62939453125e-06 9.444126129150391 9.444095611572266 -3.814697265625e-06 21.093994140625 -3.814697265625e-06 Z" stroke="none" fill="#590d2b"/></g><path d="M5670.152,635.467l10.467,7.827-10.467,7.96" transform="translate(-4792.844 1545.787)" fill="none" stroke="#590d2b" stroke-linejoin="round" stroke-width="2"/></g></g>

  <!-- icon-arrow-down -->
  <g id="icon-arrow-down" data-viewbox="0 0 7.9 4.7">
    <path class="st0" d="M4.5,4.5l3.2-3.2c0.3-0.3,0.3-0.8,0-1.1c-0.3-0.3-0.8-0.3-1.1,0L3.9,2.9L1.3,0.2C1-0.1,0.5-0.1,0.2,0.2
          c-0.3,0.3-0.3,0.8,0,1.1l3.2,3.2C3.7,4.8,4.2,4.8,4.5,4.5z"/>
  </g>

  <!-- icon-want-to-know-more-hands -->
  <g id="icon-want-to-know-more-hands" data-viewbox="0 0 84 84">
    <g transform="translate(-43 -2438)">
      <path d="M42,0A42,42,0,1,1,0,42,42,42,0,0,1,42,0Z" transform="translate(43 2438)" fill="#fff"/>
      <g transform="translate(-596 137.633)">
        <g transform="translate(652 2312)">
          <path d="M3212.247,2378.456a1.124,1.124,0,0,1-.794-.327l-2.508-2.508c-.439-.439,1.15-2.024,1.587-1.587l1.715,1.714,3.693-3.692-13.858-13.857-3.69,3.69,8.045,7.986c.439.437-1.139,2.033-1.583,1.592l-8.843-8.779a1.126,1.126,0,0,1,0-1.59l5.28-5.28a1.125,1.125,0,0,1,1.587,0l15.444,15.444a1.121,1.121,0,0,1,0,1.587l-5.28,5.28A1.122,1.122,0,0,1,3212.247,2378.456Z" transform="translate(-3195.68 -2320.307)" fill="#590d2b" stroke="#590d2b" stroke-width="0.5"/>
          <path d="M3526.228,2449.931a1.121,1.121,0,0,1-.769-1.94l1.057-.991a6.3,6.3,0,0,1,4.6-1.885,4.51,4.51,0,0,0,3.325-1.346l4.728-4.729a1.122,1.122,0,0,1,1.587,1.587l-4.752,4.752a6.612,6.612,0,0,1-4.689,1.979,4.189,4.189,0,0,0-3.231,1.255l-1.083,1.016A1.125,1.125,0,0,1,3526.228,2449.931Z" transform="translate(-3506.032 -2398.711)" fill="#590d2b" stroke="#590d2b" stroke-width="0.5"/>
          <path d="M3326.736,2192.4a1.18,1.18,0,0,1-.291-.039,1.126,1.126,0,0,1-.793-1.376l1.385-5.148a12.575,12.575,0,0,1,3.243-5.7l2.274-2.207a1.122,1.122,0,0,1,1.564,1.61l-2.244,2.177a10.354,10.354,0,0,0-2.665,4.692l-1.387,5.158A1.128,1.128,0,0,1,3326.736,2192.4Z" transform="translate(-3318.089 -2152.734)" fill="#590d2b" stroke="#590d2b" stroke-width="0.5"/>
          <path d="M3763.354,2316.338a1.121,1.121,0,0,1-.8-1.908l4.686-4.752a1.305,1.305,0,0,0,.221-1.56,1.122,1.122,0,0,1,1.947-1.114,3.5,3.5,0,0,1-.612,4.289l-4.645,4.711A1.114,1.114,0,0,1,3763.354,2316.338Z" transform="translate(-3729.427 -2274.096)" fill="#590d2b" stroke="#590d2b" stroke-width="0.5"/>
          <path d="M3730.293,2240.609a1.121,1.121,0,0,1-.8-1.908l4.093-4.159a1.386,1.386,0,0,0,.221-1.626,1.123,1.123,0,0,1,1.951-1.112,3.649,3.649,0,0,1-.578,4.319l-4.086,4.152A1.122,1.122,0,0,1,3730.293,2240.609Z" transform="translate(-3698.281 -2203.251)" fill="#590d2b" stroke="#590d2b" stroke-width="0.5"/>
          <path d="M3440.71,2165.565a1.123,1.123,0,0,1-.794-1.916,4.26,4.26,0,0,1,4.3-1,1.122,1.122,0,1,1-.668,2.142,2.06,2.06,0,0,0-2.042.449A1.123,1.123,0,0,1,3440.71,2165.565Z" transform="translate(-3425.464 -2138.436)" fill="#590d2b" stroke="#590d2b" stroke-width="0.5"/>
          <path d="M3472.654,2107.047a1.121,1.121,0,0,1-.8-1.912l8.648-8.712a3.574,3.574,0,0,1,4.994.036,3.516,3.516,0,0,1,.027,4.979l-4.093,4.093a1.122,1.122,0,0,1-1.587-1.587l4.093-4.092a1.276,1.276,0,0,0,0-1.78,1.356,1.356,0,0,0-1.844-.066l-8.645,8.71A1.117,1.117,0,0,1,3472.654,2107.047Z" transform="translate(-3455.559 -2075.299)" fill="#590d2b" stroke="#590d2b" stroke-width="0.5"/>
          <path d="M3675.571,2126.791a1.121,1.121,0,0,1-.793-1.915l6.071-6.071a1.2,1.2,0,0,0,.357-.879,1.214,1.214,0,0,0-.394-.874,1.193,1.193,0,0,0-1.078-.442,1.122,1.122,0,0,1-.4-2.208,3.67,3.67,0,0,1,4.12,3.485,3.425,3.425,0,0,1-1.014,2.5l-6.071,6.071A1.122,1.122,0,0,1,3675.571,2126.791Z" transform="translate(-3646.727 -2093.13)" fill="#590d2b" stroke="#590d2b" stroke-width="0.5"/>
          <path d="M3809.671,2378.456a1.129,1.129,0,0,1-.793-.327l-5.28-5.28a1.122,1.122,0,0,1,0-1.587l15.445-15.444a1.125,1.125,0,0,1,1.587,0l5.28,5.28a1.126,1.126,0,0,1-.011,1.6l-2.508,2.442c-.444.428-2.01-1.176-1.565-1.61l1.692-1.648-3.681-3.682-13.857,13.857,3.69,3.69,7.986-8.045c.437-.439,2.028,1.141,1.592,1.583l-8.78,8.843a1.117,1.117,0,0,1-.793.33Z" transform="translate(-3768.089 -2320.307)" fill="#590d2b" stroke="#590d2b" stroke-width="0.5"/>
          <path d="M3896.591,2162.807a1.121,1.121,0,0,1-.819-.352l-.991-1.058a6.385,6.385,0,0,1-1.885-4.6,4.4,4.4,0,0,0-1.324-3.3l-4.752-4.751a1.122,1.122,0,0,1,1.587-1.587l4.753,4.753a6.529,6.529,0,0,1,1.978,4.689,4.288,4.288,0,0,0,1.255,3.231l1.017,1.083a1.121,1.121,0,0,1-.819,1.889Z" transform="translate(-3846.493 -2123.732)" fill="#590d2b" stroke="#590d2b" stroke-width="0.5"/>
          <path d="M3740.046,2556.762a1.183,1.183,0,0,1-.291-.039l-6.4-1.8a1.122,1.122,0,0,1,.71-2.128l1.189.4,5.084,1.364a1.123,1.123,0,0,1-.291,2.208Z" transform="translate(-3701.5 -2506.135)" fill="#590d2b" stroke="#590d2b" stroke-width="0.5"/>
          <path d="M3821.027,2081.4a1.118,1.118,0,0,1-.8-.335l-4.093-4.158a1.123,1.123,0,0,1,1.6-1.574l4.092,4.158a1.123,1.123,0,0,1-.8,1.909Z" transform="translate(-3779.906 -2056.057)" fill="#590d2b" stroke="#590d2b" stroke-width="0.5"/>
          <path d="M3819.835,1770.8a1.116,1.116,0,0,1-.793-.329L3803.6,1755.03a1.122,1.122,0,0,1,0-1.587l5.28-5.281a1.336,1.336,0,0,1,.8-.329,1.127,1.127,0,0,1,.8.34l2.442,2.508c.432.443-1.175,2.009-1.61,1.564l-1.648-1.693-3.682,3.684,13.857,13.857,3.693-3.693-8.05-8.051c-.438-.439,1.151-2.026,1.587-1.587l8.844,8.844a1.122,1.122,0,0,1,0,1.587l-5.28,5.28A1.118,1.118,0,0,1,3819.835,1770.8Z" transform="translate(-3768.089 -1747.833)" fill="#590d2b" stroke="#590d2b" stroke-width="0.5"/>
          <path d="M3595.765,1877.624a1.122,1.122,0,0,1-.794-1.916l4.752-4.752a6.486,6.486,0,0,1,4.689-1.913,4.288,4.288,0,0,0,3.231-1.254l1.058-1.057a1.122,1.122,0,0,1,1.587,1.587l-1.057,1.056a6.4,6.4,0,0,1-4.621,1.912,4.374,4.374,0,0,0-3.3,1.255l-4.752,4.752A1.118,1.118,0,0,1,3595.765,1877.624Z" transform="translate(-3571.542 -1859.538)" fill="#590d2b" stroke="#590d2b" stroke-width="0.5"/>
          <path d="M4001.639,2075.588a1.1,1.1,0,0,1-.354-.058,1.121,1.121,0,0,1-.709-1.419l.4-1.187,1.365-5.086a1.113,1.113,0,0,1,1.375-.792,1.125,1.125,0,0,1,.793,1.375l-1.8,6.4A1.121,1.121,0,0,1,4001.639,2075.588Z" transform="translate(-3953.917 -2048.527)" fill="#590d2b" stroke="#590d2b" stroke-width="0.5"/>
          <path d="M3523.932,2027.833a1.122,1.122,0,0,1-.794-1.916l4.159-4.159a1.122,1.122,0,0,1,1.587,1.587l-4.159,4.159A1.116,1.116,0,0,1,3523.932,2027.833Z" transform="translate(-3503.867 -2005.589)" fill="#590d2b" stroke="#590d2b" stroke-width="0.5"/>
          <path d="M3202.056,1770.8a1.119,1.119,0,0,1-.794-.329l-5.28-5.28a1.122,1.122,0,0,1,0-1.587l2.508-2.508c.437-.439,2.026,1.148,1.587,1.587l-1.714,1.715,3.693,3.693,13.857-13.857-3.692-3.694-8.052,8.052c-.437.439-2.026-1.148-1.587-1.587l8.846-8.845a1.124,1.124,0,0,1,.794-.329h0a1.125,1.125,0,0,1,.794.329l5.28,5.281a1.122,1.122,0,0,1,0,1.587l-15.445,15.444A1.118,1.118,0,0,1,3202.056,1770.8Z" transform="translate(-3195.654 -1747.833)" fill="#590d2b" stroke="#590d2b" stroke-width="0.5"/>
          <path d="M3317.948,2085.03a1.12,1.12,0,0,1-1.121-1.122v-.4a4.2,4.2,0,0,0-1.257-3.234l-1.058-1.055a1.123,1.123,0,0,1,1.588-1.587l1.057,1.056a6.333,6.333,0,0,1,1.912,4.622v.594A1.12,1.12,0,0,1,3317.948,2085.03Z" transform="translate(-3307.321 -2058.232)" fill="#590d2b" stroke="#590d2b" stroke-width="0.5"/>
          <path d="M3522.317,1881.777a1.114,1.114,0,0,1-.5-.118,3.163,3.163,0,0,0-.589-.2c-.15-.041-.3-.084-.453-.134l-5.084-1.368a1.12,1.12,0,0,1-.791-1.376,1.108,1.108,0,0,1,1.373-.791l5.555,1.506a5.42,5.42,0,0,1,.994.356,1.123,1.123,0,0,1-.5,2.126Z" transform="translate(-3496.377 -1870.226)" fill="#590d2b" stroke="#590d2b" stroke-width="0.5"/>
        </g>
      </g>
    </g>
  </g>

  <!-- icon-want-to-know-more-computer -->
  <g id="icon-want-to-know-more-computer" data-viewbox="0 0 84 84">
    <g transform="translate(-354 -2438)">
      <path d="M42,0A42,42,0,1,1,0,42,42,42,0,0,1,42,0Z" transform="translate(354 2438)" fill="#fff"/>
      <g transform="translate(-98.22 -192.905)">
        <path d="M9416.638,2888.4H9452.2" transform="translate(-8940.63 -195.435)" fill="none" stroke="#590d2b" stroke-width="3"/>
        <g transform="translate(470.939 2650.443)">
          <path d="M9395.94,2769.439v-20h45.952v23.528H9395.94v10.268h16.621v8.723" transform="translate(-9395.94 -2749.444)" fill="none" stroke="#590d2b" stroke-linejoin="round" stroke-width="3"/>
          <path d="M9509.139,2840.278v5.853h-16.3v8.583" transform="translate(-9463.188 -2812.482)" fill="none" stroke="#590d2b" stroke-linejoin="round" stroke-width="3"/>
          <circle cx="2.5" cy="2.5" r="2.5" transform="translate(20.28 28.461)" fill="#590d2b"/>
        </g>
      </g>
    </g>
  </g>

  <!-- icon-want-to-know-more-doc -->
  <g id="icon-want-to-know-more-doc" data-viewbox="0 0 84 84">
    <g transform="translate(-665 -2438)">
      <path d="M42,0A42,42,0,1,1,0,42,42,42,0,0,1,42,0Z" transform="translate(665 2438)" fill="#fff"/>
      <g transform="translate(155 -183)">
        <path d="M9668.121,2706.635H9704.3v-44.614" transform="translate(-9135.619 -20.216)" fill="none" stroke="#590d2b" stroke-linejoin="round" stroke-width="3"/>
        <path d="M9674.45,2693.354h-20.179v-42.722h35.452v31.232l-11.489,11.49v-11.49h11.489" transform="translate(-9126 -12)" fill="none" stroke="#590d2b" stroke-linejoin="round" stroke-width="3"/>
        <path d="M9676.055,2673.482H9698.4" transform="translate(-9141.131 -27.871)" fill="none" stroke="#590d2b" stroke-width="3"/>
        <path d="M9676.055,2673.482h18.515" transform="translate(-9141.131 -15.045)" fill="none" stroke="#590d2b" stroke-width="3"/>
        <path d="M9676.055,2673.482h15.1" transform="translate(-9141.131 -21.458)" fill="none" stroke="#590d2b" stroke-width="3"/>
      </g>
    </g>
  </g>

  <!-- icon-want-to-know-more-talking -->
  <g id="icon-want-to-know-more-talking" data-viewbox="0 0 84 84">
    <g transform="translate(-77 -4052)">
      <path d="M42,0A42,42,0,1,1,0,42,42,42,0,0,1,42,0Z" transform="translate(77 4052)" fill="#fff"/>
      <g transform="translate(-2460.651 3029.853)">
        <path d="M2581.137,1072.654a1.03,1.03,0,0,0,1.758-.728v-5.149h3.09a3.093,3.093,0,0,0,3.089-3.089v-20.6a3.093,3.093,0,0,0-3.089-3.089h-30.9a3.093,3.093,0,0,0-3.09,3.089v20.6a3.093,3.093,0,0,0,3.09,3.089h20.171Zm-27.078-8.967v-20.6a1.031,1.031,0,0,1,1.03-1.03h30.9a1.031,1.031,0,0,1,1.03,1.03v20.6a1.031,1.031,0,0,1-1.03,1.03h-4.12a1.03,1.03,0,0,0-1.03,1.03v3.693l-4.422-4.421a1.027,1.027,0,0,0-.728-.3h-20.6A1.031,1.031,0,0,1,2554.06,1063.687Z" transform="translate(0)" fill="#590d2b" stroke="#590d2b" stroke-width="1"/>
        <path d="M2716.045,1152h-10.3a1.03,1.03,0,0,0,0,2.06h10.3a1.031,1.031,0,0,1,1.03,1.03v20.6a1.031,1.031,0,0,1-1.03,1.03h-22.657a1.028,1.028,0,0,0-.728.3l-4.421,4.421v-3.693a1.03,1.03,0,0,0-1.03-1.03h-4.119a1.031,1.031,0,0,1-1.03-1.03v-8.239a1.03,1.03,0,1,0-2.06,0v8.239a3.093,3.093,0,0,0,3.09,3.089h3.09v5.149a1.03,1.03,0,0,0,1.758.728l5.877-5.877h22.23a3.093,3.093,0,0,0,3.09-3.089v-20.6A3.093,3.093,0,0,0,2716.045,1152Z" transform="translate(-111.522 -97.582)" fill="#590d2b" stroke="#590d2b" stroke-width="1"/>
        <circle cx="1" cy="1" r="1" transform="translate(2556.651 1051.147)" fill="#590d2b" stroke="#590d2b" stroke-width="1"/>
        <circle cx="1" cy="1" r="1" transform="translate(2561.651 1051.147)" fill="#590d2b" stroke="#590d2b" stroke-width="1"/>
        <ellipse cx="0.5" cy="1" rx="0.5" ry="1" transform="translate(2565.651 1051.147)" fill="#590d2b" stroke="#590d2b" stroke-width="1"/>
        <circle cx="1" cy="1" r="1" transform="translate(2569.651 1051.147)" fill="#590d2b" stroke="#590d2b" stroke-width="1"/>
        <circle cx="1" cy="1" r="1" transform="translate(2573.651 1051.147)" fill="#590d2b" stroke="#590d2b" stroke-width="1"/>
        <circle cx="1" cy="1" r="1" transform="translate(2577.651 1051.147)" fill="#590d2b" stroke="#590d2b" stroke-width="1"/>
        <ellipse cx="0.5" cy="1" rx="0.5" ry="1" transform="translate(2582.651 1051.147)" fill="#590d2b" stroke="#590d2b" stroke-width="1"/>
      </g>
    </g>
  </g>

  <!-- icon-want-to-know-more-magnifying-glass -->
  <g id="icon-want-to-know-more-magnifying-glass" data-viewbox="0 0 84 84">
    <g transform="translate(-354 -2350)">
      <path d="M42,0A42,42,0,1,1,0,42,42,42,0,0,1,42,0Z" transform="translate(354 2350)" fill="#fff"/>
      <g transform="translate(372.789 2368)">
        <path d="M248.815,173.937l3.793,3.793,1.529-1.529a17.912,17.912,0,1,0-3.793-3.793Zm1.91-12.153a14.035,14.035,0,1,1,4.111,9.925A13.943,13.943,0,0,1,250.725,161.784Z" transform="translate(-236.67 -143.875)" fill="#590d2b"/>
        <path d="M155.684,436.379,145.1,446.967a2.682,2.682,0,0,0,3.793,3.793l10.588-10.588Z" transform="translate(-144.312 -405.545)" fill="#590d2b"/>
      </g>
    </g>
  </g>

  <!-- icon-want-to-know-more-envelope -->
  <g id="icon-want-to-know-more-envelope" data-viewbox="0 0 84 84">
    <g transform="translate(-665 -2350)">
      <path d="M42,0A42,42,0,1,1,0,42,42,42,0,0,1,42,0Z" transform="translate(665 2350)" fill="#fff"/>
      <g transform="translate(244 -158.461)">
        <g transform="translate(439 2526)">
          <path d="M115.461,135v29.855a3.062,3.062,0,0,1-3.062,3.062H71.062A3.062,3.062,0,0,1,68,164.855V135" transform="translate(-68 -120.455)" fill="none" stroke="#590d2b" stroke-linejoin="round" stroke-width="3"/>
          <line x1="4.561" y2="2.904" transform="translate(0.031 11.597)" fill="none" stroke="#590d2b" stroke-linecap="round" stroke-linejoin="round" stroke-width="3"/>
          <path d="M104.56,120.595l-6.494-4.111a2.959,2.959,0,0,0-3.243,0l-6.453,4.109" transform="translate(-72.777 -116)" fill="none" stroke="#590d2b" stroke-linecap="round" stroke-linejoin="round" stroke-width="3"/>
          <line x1="4.561" y1="2.888" transform="translate(42.869 11.614)" fill="none" stroke="#590d2b" stroke-linecap="round" stroke-linejoin="round" stroke-width="3"/>
          <path d="M115.439,148.04,93.3,162.057a2.953,2.953,0,0,1-3.243,0L68.041,148.04" transform="translate(-68.01 -123.513)" fill="none" stroke="#590d2b" stroke-linecap="round" stroke-linejoin="round" stroke-width="3"/>
          <path d="M74,140.372V122h38.275v18.372" transform="translate(-69.407 -117.407)" fill="none" stroke="#590d2b" stroke-linecap="round" stroke-linejoin="round" stroke-width="3"/>
          <g transform="translate(14.004 10.39)">
            <path d="M97.963,150.128a13.144,13.144,0,0,1-7.957-2.3c-3.994-2.948-4.693-8.828-2.442-13.086a10.083,10.083,0,0,1,11-4.941,9.174,9.174,0,0,1,7.332,8.535c0,.123,0,.247,0,.37.15,8.792-6.815,5.68-6.815,3.408v-7.621" transform="translate(-86.294 -129.573)" fill="none" stroke="#590d2b" stroke-linecap="round" stroke-linejoin="round" stroke-width="3"/>
            <path d="M99.982,136.68a5.582,5.582,0,0,0-3.815.164,5.453,5.453,0,0,0-2.665,6.333,3.8,3.8,0,0,0,2.451,2.613c2.456.756,3.854-.593,4.558-2.275" transform="translate(-87.938 -131.18)" fill="none" stroke="#590d2b" stroke-linecap="round" stroke-linejoin="round" stroke-width="3"/>
          </g>
        </g>
      </g>
    </g>
  </g>

  <!-- icon-want-to-know-more-phone -->
  <g id="icon-want-to-know-more-phone" data-viewbox="0 0 84 84">
    <g transform="translate(-462 -3550)">
      <circle cx="42" cy="42" r="42" transform="translate(462 3550)" fill="#fff"/>
      <path d="M1374.742,621h-17.828a4.174,4.174,0,0,0-4.174,4.174v47.462a4.174,4.174,0,0,0,4.174,4.174h17.828a4.174,4.174,0,0,0,4.174-4.174V625.174A4.174,4.174,0,0,0,1374.742,621Zm-11.605,4.7a.445.445,0,0,1,.445-.445h4.493a.445.445,0,0,1,.445.445v.127a.445.445,0,0,1-.445.445h-4.493a.445.445,0,0,1-.445-.445Zm2.692,49.524a2.468,2.468,0,1,1,2.468-2.468A2.468,2.468,0,0,1,1365.828,675.222Zm11.277-6.23h-22.554V628.9H1377.1Z" transform="translate(-861.74 2943)" fill="#590d2b"/>
    </g>
  </g>

  <!-- icon-topic-list -->
  <g id="icon-topic-list" data-viewbox="0 0 25.674 25.674">
    <g transform="translate(-77.219 -2962.166)">
      <path d="M12.837,0A12.837,12.837,0,1,1,0,12.837,12.837,12.837,0,0,1,12.837,0Z" transform="translate(77.219 2962.166)" fill="#fff"/>
      <path d="M259.877,502.864a.273.273,0,0,0-.022-.052c0-.007-.005-.016-.01-.023s-.011-.01-.016-.016a.271.271,0,0,0-.042-.04.254.254,0,0,0-.04-.027.258.258,0,0,0-.049-.019.263.263,0,0,0-.052-.011c-.008,0-.016,0-.024,0H244.559c-.008,0-.016,0-.024,0a.3.3,0,0,0-.1.029.254.254,0,0,0-.041.028.264.264,0,0,0-.041.04c0,.006-.012.009-.016.016a.227.227,0,0,0-.01.023.262.262,0,0,0-.033.1.242.242,0,0,0-.005.027v10.391a.272.272,0,0,0,.018.087.268.268,0,0,0,.063.1v0a.277.277,0,0,0,.036.023.223.223,0,0,0,.154.054h15.062a.273.273,0,0,0,.1-.021.267.267,0,0,0,.051-.033.274.274,0,0,0,.036-.023v0a.268.268,0,0,0,.063-.1.273.273,0,0,0,.018-.087V502.943a.246.246,0,0,0-.005-.027A.266.266,0,0,0,259.877,502.864Zm-13.6.35h12.471l-6.087,4.2a1.011,1.011,0,0,1-1.142,0l-6.087-4.2Zm-1.447.246,5.348,3.688-5.348,5.513Zm.37,9.6,5.431-5.6.578.4a1.557,1.557,0,0,0,1.76,0l.578-.4,5.431,5.6Zm14.149-.4L254,507.149l5.348-3.688Z" transform="translate(-162.185 2466.82)" fill="#a1121e" stroke="#590d2b" stroke-width="0.5"/>
    </g>
  </g>

  <!-- icon-topic-list-complete -->
  <g id="icon-topic-list-complete" data-viewbox="0 0 25.674 25.674">
    <g transform="translate(-317 -2929)">
      <path d="M12.837,0A12.837,12.837,0,1,1,0,12.837,12.837,12.837,0,0,1,12.837,0Z" transform="translate(317 2929)" fill="#fff"/>
      <g transform="translate(1 -1161)">
        <path d="M14.145.175a.248.248,0,0,0-.02-.048c0-.007,0-.014-.009-.021S14.1.1,14.1.092a.246.246,0,0,0-.038-.037.229.229,0,0,0-.036-.024.233.233,0,0,0-.044-.017A.237.237,0,0,0,13.934,0c-.007,0-.014,0-.022,0H.247C.239,0,.232,0,.225,0a.245.245,0,0,0-.049.01A.242.242,0,0,0,.133.031.232.232,0,0,0,.1.056.24.24,0,0,0,.059.092C.054.1.048.1.044.107A.2.2,0,0,0,.035.128.239.239,0,0,0,.014.175.242.242,0,0,0,0,.222.22.22,0,0,0,0,.247V9.675a.247.247,0,0,0,.016.079.243.243,0,0,0,.057.094v0a.252.252,0,0,0,.032.021.244.244,0,0,0,.046.03.248.248,0,0,0,.093.019H13.912a.248.248,0,0,0,.093-.019.242.242,0,0,0,.046-.03.249.249,0,0,0,.032-.021v0a.243.243,0,0,0,.057-.094.248.248,0,0,0,.016-.079V.247a.223.223,0,0,0,0-.024A.242.242,0,0,0,14.145.175ZM1.806.493H13.121L7.6,4.3a.917.917,0,0,1-1.037,0L1.038.493ZM.493.716,5.345,4.063l-4.852,5Zm.336,8.71,4.928-5.08.524.362a1.413,1.413,0,0,0,1.6,0L8.4,4.346l4.928,5.08Zm12.837-.362-4.852-5L13.666.716Z" transform="matrix(0.966, -0.259, 0.259, 0.966, 322.756, 4098.821)" fill="#a1121e" stroke="#590d2b" stroke-width="0.5"/>
        <path d="M4.33,0H0" transform="matrix(0.966, -0.259, 0.259, 0.966, 320.604, 4106.921)" fill="none" stroke="#590d2b" stroke-linecap="round" stroke-width="1"/>
        <line x1="2.722" transform="matrix(0.966, -0.259, 0.259, 0.966, 322.826, 4108.204)" fill="none" stroke="#590d2b" stroke-linecap="round" stroke-width="1"/>
        <path d="M6.125,0H0" transform="matrix(0.966, -0.259, 0.259, 0.966, 318.381, 4105.638)" fill="none" stroke="#590d2b" stroke-linecap="round" stroke-width="1"/>
      </g>
    </g>
  </g>

  <!-- icon-save -->
  <g id="icon-save" data-viewbox="0 0 25.674 25.674">
    <g transform="translate(-77.219 -3048.166)">
      <path d="M12.837,0A12.837,12.837,0,1,1,0,12.837,12.837,12.837,0,0,1,12.837,0Z" transform="translate(77.219 3048.166)" fill="#fff"/>
      <path d="M664.069,669.958a.264.264,0,0,0,.007-.033V659.454c0-.008-.005-.015-.006-.023a.287.287,0,0,0-.038-.116.238.238,0,0,0-.012-.024.259.259,0,0,0-.049-.041c-.006,0-.009-.013-.016-.017l-7.59-4.881a.263.263,0,0,0-.286,0l-7.59,4.881c-.007,0-.01.012-.016.017a.255.255,0,0,0-.049.041.226.226,0,0,0-.012.024.234.234,0,0,0-.018.035.258.258,0,0,0-.021.081c0,.008-.006.015-.006.023v10.471a28.063,28.063,0,0,1,.017.084.249.249,0,0,0,.025.05.243.243,0,0,0,.014.028s.008.006.011.01a.222.222,0,0,0,.128.078.265.265,0,0,0,.053.011c.005,0,.01,0,.015,0h15.18a.191.191,0,0,0,.132-.041.256.256,0,0,0,.065-.052s.008,0,.011-.009a.216.216,0,0,0,.014-.028.253.253,0,0,0,.025-.05A.243.243,0,0,0,664.069,669.958ZM648.9,660l5.967,4.715-5.967,4.669Zm11.934,1.475-3.691,2.916a1.764,1.764,0,0,0-1.834,0l-3.7-2.924a.253.253,0,0,0,.01-.048v-1.054h9.216Zm-5.377,3.449a1.247,1.247,0,0,1,1.539,0l6.055,4.738H649.4Zm2.129-.209L663.548,660v9.384Zm-1.359-9.827,7.137,4.589-2,1.58V660.1a.264.264,0,0,0-.264-.264H651.35a.264.264,0,0,0-.264.264v.956l-2-1.58Z" transform="translate(-566.368 2397.501)" fill="#a1121e" stroke="#590d2b" stroke-width="0.5"/>
    </g>
  </g>

  <!-- icon-postmark -->
  <g id="icon-postmark" data-viewbox="0 0 46.336 49.5">
    <defs>
      <clipPath id="clip-path">
        <rect width="46.336" height="49.5" />
      </clipPath>
    </defs>
    <g transform="translate(319.187 -149.993)">
      <g transform="translate(-319.187 149.993)" clip-path="url(#clip-path)">
        <path d="M-226.969,198.227c1.289-.454,2.993-.767,3.549-1.845-1.312-.077-2.768.031-3.172,1.1.019-.2.054-.581.071-.776a12.222,12.222,0,0,0-2.533,1.241,11.433,11.433,0,0,1-4.65,1.012,14,14,0,0,1-6.249-1.916,7.316,7.316,0,0,0-3.13-1.617c0,.238-.009.707-.014.941.247-.008.74-.033.992-.045l.012.208c-.311-.021-.94-.055-1.251-.076.328.859,1.855.364,2.738.525-.266.111-.794.329-1.056.44,2.974,2.7,8.338,3.483,12.656,2.223C-228.275,199.224-227.232,198.948-226.969,198.227Zm-28.328.933a9.434,9.434,0,0,0,2.689-1.536c-.353.058-1.064.174-1.416.234-1.35-.531-2.62.247-3.892.528a10.977,10.977,0,0,1-5.07-.259c-1.318-.595-2.586-1.246-3.872-1.875-.446.283-.9.563-1.355.832,2.289,1.145,4.466,2.56,7.334,2.832l-.751-.965,1.033-.014c.435.19.875.366,1.315.536-.6.03-1.21.072-1.817.128,1.214.471,3.953.605,4.232-.666C-256.341,199.007-255.819,199.081-255.3,199.16Zm-54.16-.317c.465-.148.93-.29,1.394-.431.07-.375.136-.753.2-1.131a2.922,2.922,0,0,0,1.037.734c.3-.24.891-.722,1.193-.965-.261-.117-.78-.343-1.04-.459-.379.06-.768.118-1.156.17-.457.183-.913.365-1.378.546-.295.346-.587.693-.9,1.031.033-.225.095-.673.127-.9-.2.107-.6.317-.81.423-.734-.014-1.476-.027-2.218-.044.007.235.023.711.03.945.573.684,1.868.235,2.525-.147Q-309.95,198.729-309.457,198.844Zm32.448-2.333a10.454,10.454,0,0,1,7.793.07c.933.707,1.419-.366,1.959-.744a14.389,14.389,0,0,0-5.494-1.358,12.24,12.24,0,0,0-8.623,2.775c-.237.022-.708.07-.948.1-.593.23-1.2.454-1.786.7a14.394,14.394,0,0,1-3.868.076,8.84,8.84,0,0,0-1.788-.4c-1.834-.917-3.673-1.83-5.378-2.871.014.457-.544,1.082.094,1.423.652.456,1.363.865,2.07,1.27l-.106.281c.7.117,1.471.009,2.135.182l-.795.168a6.051,6.051,0,0,0,1.882.906,19.7,19.7,0,0,0,7.44-.077C-280.351,198.506-278.9,197.242-277.009,196.511Zm29.716-.316c1.371-.034,2.989.359,3.993-.562-.357-.144-1.079-.434-1.435-.581-.288.074-.862.213-1.15.285-1.226-.751-2.711-.2-4.09-.052a5.12,5.12,0,0,1,.356.588c-.407-1.054-2.558-.357-2.686.472-1.049-.394-1.731.7-2.552,1.008l1.938.2a.978.978,0,0,1,1.609-.422A10.273,10.273,0,0,1-247.294,196.195Zm-55.908-.862c-.156.061-.472.192-.629.254-.151-.166-.455-.5-.61-.667-.026.17-.072.511-.1.677-.554-.719-1.407.268-2.083.427l.024.273.845.561c.574-.176,1.14-.353,1.694-.56C-303.6,196.1-302.546,195.847-303.2,195.333Zm4.491-1.218c-1.7.029-3.932-.222-5.082.866l.813.04c.041.184.115.545.151.729.79-.153,1.587-.276,2.389-.374.263-.309.521-.615.777-.925.021.287.057.859.076,1.145.36-.2.716-.4,1.064-.6.579.806,2.134.651,3.133.964A3.416,3.416,0,0,0-298.711,194.115Zm79.454,1.773a3.946,3.946,0,0,1-.98-.6,35.63,35.63,0,0,0-4,.325l-.1.355a11.9,11.9,0,0,1,4.1.439C-219.906,196.237-219.577,196.062-219.256,195.889Zm-4.685-8c-.32-.211-.646-.417-.983-.619.422,0,.839,0,1.253.005l-.1.481a19.531,19.531,0,0,1,3.9-.494c.694.051.884-.534,1.081-.89-.348,0-1.046,0-1.393,0-.573-.667-1.824-.157-2.681-.158-3.4.326-5.384,2.757-8.619,3.37-.924.044-2.1.041-2.235.907l-1.173-.017-.033.494c.809-.045,1.615-.108,2.416-.186a7.639,7.639,0,0,0,3.155-.389C-227.251,189.949-225.838,188.619-223.942,187.889Zm-23.617-.974c3.013-.336,5.688,1.005,7.8,2.421.182-.665,1.627-1.577-.3-1.881-.065.181-.188.54-.254.72-.539-.221-.509-.573.067-.77a11.366,11.366,0,0,0-4.757-1.746c-.218.1-.658.3-.877.408a8.055,8.055,0,0,1-2.317-.274c-3.172-.048-5.437,1.792-7.877,2.989.076.112.783.66.146.5-.2-.083-.622-.247-.826-.33a39.971,39.971,0,0,1-4.369.44,8.127,8.127,0,0,0-2.329-.582c.083.163.245.48.328.638-.33-.108-.666-.222-1-.335.117-.109.351-.324.468-.431a12.208,12.208,0,0,0-2.51-1.38l-.521.532c.262-.535-.013-.97-.595-1.316-.3.052-.918.167-1.227.223-.128-.211-.39-.629-.516-.839-.887-.1-1.777-.154-2.677-.178.427.537,1.366.463,2.074.6l-.789.458q.812.219,1.611.44a21.94,21.94,0,0,0,7.565,3.325,17.652,17.652,0,0,0,5.209-.291C-253.08,189.308-250.914,187.208-247.559,186.915Zm-30.554-.108c.244.237.48.477.717.71.542-.272,1.471-.357,1.429-.968-.319-.038-.961-.111-1.281-.145.1-.181.312-.542.412-.723a14.393,14.393,0,0,0-2.588,1.142,16.063,16.063,0,0,1-3.68,1.652c-1.073.459-2.593.159-3.414.931-.253-.8-1.424-.592-2.209-.391-.5-.731-1.609-.969-2.459-1.417a7.848,7.848,0,0,0-2.633-1.148,13.269,13.269,0,0,0,.189,1.32,24.4,24.4,0,0,0,2.36,1.5c.31-.3.625-.592.934-.883a2.757,2.757,0,0,1-.378,1.167c3.756,1,8.415.951,11.477-1.123C-280.812,187.96-278.52,187.3-278.113,186.807Zm-31.151,1.754c.084.34.17.684.249,1.028,2.058-.594,3.562-1.807,5.407-2.645.045-.243.145-.732.191-.978-.271-.068-.812-.2-1.083-.275-.18.135-.542.4-.721.532a4.362,4.362,0,0,0-1.67.995c.293.048.889.141,1.187.191-.223.137-.668.418-.892.559-.274-.172-.555-.34-.844-.507-.012.271-.033.812-.043,1.083-.071-.207-.21-.619-.28-.827a12.879,12.879,0,0,1-3.525.767c-.894.082-2.365.023-2.333.955a9.3,9.3,0,0,0,4.363-.011C-309.261,189.208-309.264,188.775-309.264,188.56Zm72.246.676c-.458.206-.911.417-1.363.629.491.214.987.408,1.5.588a1.293,1.293,0,0,1,1.4.136,5.2,5.2,0,0,0,1.88-.931A6.811,6.811,0,0,1-237.018,189.237Zm-2.206-.013c.064.095.192.282.255.377a.578.578,0,1,0,.493-.99A1.081,1.081,0,0,0-239.224,189.224Zm-39.865-.908.9-.475C-278.493,187.47-279.443,188-279.089,188.315Zm-16.083-2.24c-.032-.13-.1-.385-.128-.51a16.5,16.5,0,0,1-3.69-.788c.025.211.073.634.1.847l-.533.06c.063-.234.192-.706.255-.938l-.9.157-.421.4c-.3-.171-.607-.347-.91-.523a2.634,2.634,0,0,1,.519,1.3c.833.012,1.665.014,2.49.046.058-.228.169-.679.223-.907.207.205.615.616.82.822.148-.107.438-.318.586-.424.016.192.053.576.07.765.893.341,1.758.72,2.6,1.126.165-.578.642-2.086-.894-1.558Zm18.873-.041a3.128,3.128,0,0,0,1.906.237C-274.264,185.657-276.115,185.521-276.3,186.035Zm22.807-6.023a17.6,17.6,0,0,1,5.26-2.278,10.483,10.483,0,0,1,7.429,1.609c.492.2,1.2.931,1.758.536l.162-.133a2.155,2.155,0,0,0,1.973-.062c-1.51-.458-2.524-1.431-3.944-1.995l-.38.138c-.211-.632-1.137-.81-1.775-1.143-.339-.03-1.009-.092-1.342-.122a4.556,4.556,0,0,1-.6.612c.015-.209.046-.626.06-.836a39.165,39.165,0,0,0-4.6.368c-.438.28-.641.849-1.176.992-.1-.181-.3-.541-.4-.72-.282.157-.852.473-1.136.633.091.107.27.326.361.432l-1.069-.169c-.525.333-1.053.666-1.57,1.009.1.095.314.283.418.379-2.043.105-3.916.972-6.019.692-.974.05-2.052-.384-2.926-.236-.64-.848-2.116-1.071-2.946-1.81-.582.079-1.172.156-1.759.237-.222-.272-.444-.545-.671-.819l.632-.139c-.641-.279-1.289-.559-1.939-.838-.053.285-.108.573-.167.859-.653-.147-1.3-.291-1.964-.42.454.652,1.447.715,2.285.92a13.349,13.349,0,0,1,3.286,1.546c1.34.61,2.427,1.673,4.141,1.686l.788.319c.01-.227.025-.684.029-.912.588.5,1.5.314,2.273.322l-.187.319-1.572-.265-.085.482a11.091,11.091,0,0,1,2.351.156A12.371,12.371,0,0,0-253.492,180.012Zm23.1.8c.072.178.212.531.283.706a10.307,10.307,0,0,0,3.579-1.64c.937-.391,1.821-.844,2.706-1.294a6.234,6.234,0,0,0,2.559-.992,23.25,23.25,0,0,0-2.492.4c-.018-.223-.056-.667-.077-.889a11.227,11.227,0,0,0-3.922,2.033c-.735.253-1.462.509-2.2.761q.9.222,1.81.413c-.124.069-.374.2-.5.267-1.585-.839-3.7-.069-5.448.119a5.908,5.908,0,0,0,.57.451c-.342.035-1.508.242-.723.491.935.017,1.867,0,2.8-.014C-231.077,181.4-230.867,180.864-230.393,180.817Zm-48.021-2.131c-.5.058-1.01.121-1.516.181a11.341,11.341,0,0,0-2.442.115c-.608.268-1.229.519-1.85.768a33.563,33.563,0,0,1-4.239-.408c-1.941-.435-3.339-1.571-5.058-2.3.007.314.022.945.027,1.264l1.308-.084a7.106,7.106,0,0,0-.494.819c1.447-.449,1.049,1.59,2.749,1.113.015-.182.045-.548.062-.728l.79.259c-.313.214-.617.431-.917.659a24.332,24.332,0,0,0,2.98.341c.056-.134.171-.4.233-.536l.759.245c-.254.163-.509.33-.764.5a5.99,5.99,0,0,0,2.83-.37C-281.693,181.017-280.026,179.579-278.414,178.685Zm-28.182.838-.563-.69.743-.2c-.242-.158-.489-.315-.745-.474a12.086,12.086,0,0,0-2.416,1.261,6.891,6.891,0,0,0-3.8.089c.19.344.376.688.555,1.027.578-.052,1.146-.111,1.711-.184l-.195.2a9.5,9.5,0,0,0,3.1-.557C-307.671,179.833-307.132,179.679-306.6,179.524Zm70.125.624q-1.064.164-2.134.3l1.114.646c1,.146,2.59.32,2.761-.7C-235.162,180.337-236.033,180.212-236.471,180.148Zm-65.774-2.969c-.289-.055-.866-.16-1.154-.212.177-.246.353-.488.535-.726l-.474-.173a15.881,15.881,0,0,0-2.86,1.688c.422.361.057.765-.127,1.125.97.222,1.215-.522,1.644-.966C-303.729,178.1-303,177.474-302.245,177.179Zm8.443-.277a7.806,7.806,0,0,0-4.215-1.24c.059.241.177.727.237.971.182-.086.551-.253.732-.337.032.2.1.591.127.791a28.489,28.489,0,0,1,3.221,1.179A9.6,9.6,0,0,0-293.8,176.9Zm20.953.2a10.831,10.831,0,0,0-1.443-1.284c-.015.241-.048.72-.067.96-.849-.3-1.342.3-1.908.632.668-.22,1.373-.617,1.988-.11C-273.8,177.238-273.322,177.171-272.849,177.1Zm51.638-.379c.087.445.182.893.264,1.335.577-.069,1.149-.141,1.723-.216C-219.427,177.121-220.273,176.815-221.211,176.726Zm-77.488-1.256c-1.236.084-2.47.214-3.69.386-.077.3-.228.882-.3,1.176.321-.2.967-.6,1.288-.8-.052.2-.154.592-.207.79a20.42,20.42,0,0,1,3.278-.216C-298.457,176.36-298.578,175.915-298.7,175.469Zm40.511-4.024.764-.236c.058.152.183.459.245.611a7.784,7.784,0,0,0,3.152-.768c-.849-.06-1.7-.1-2.546-.135a.829.829,0,0,0-.954-.171c-1.771.591-3.582-.18-5.279-.559-2.292-1.013-4.2-2.509-6.78-3.154a7.862,7.862,0,0,0-4.048-.194c.065.4.122.8.17,1.192,4.027-.427,7.049,2.011,10.172,3.469,1.339.248,2.711.4,4.059.611.582-.039,1.159-.081,1.735-.123C-257.722,171.809-257.954,171.625-258.188,171.446Zm28.209.422,1.278.225c.014-.237.05-.716.07-.958.738,0,1.686.247,2.229-.26a7.512,7.512,0,0,1,2.8-1.743c-.228-.617-1.239-.426-1.886-.584-.363.341-.725.687-1.1,1.03-.024.2-.063.593-.086.792-.053-.152-.16-.452-.218-.6a7.779,7.779,0,0,0-2.453.813c-.424.123-.853.242-1.284.361-2.214.595-4.422-.147-6.64-.308l.066.541c-.122-.069-.368-.211-.491-.284,1.033-.546-.379-.862-.859-1.246-.347.185-.7.37-1.059.554.477,1.106,2.116,1.486,3.441,1.873.686.553,1.09-.1,1.586-.319.094.137.28.4.374.536a34.192,34.192,0,0,0,3.673,0C-230.4,172.187-230.117,171.975-229.979,171.868Zm-53.388-.636c-.836-.361-.807.695.01.308Zm-3.145-.419a9.6,9.6,0,0,0-3.354-1.057l-.846.782q.918.032,1.827.067c-.425.126-.849.254-1.278.374,1.82.708,3.9.494,5.864.689a5.33,5.33,0,0,0-1.009-1.435C-285.707,170.426-286.107,170.623-286.512,170.813Zm-21.167-.186a3.607,3.607,0,0,0,.207-1.346,4.78,4.78,0,0,0-1.493.72,9.419,9.419,0,0,0-2.869.023c-.026.291-.074.876-.1,1.168.895,0,1.788,0,2.676-.012C-308.728,171-308.176,170.849-307.679,170.627Zm-5.263-.4c-.5.317.021,1.209.7.866C-311.719,170.772-312.235,169.858-312.942,170.227Zm34.553-1.114.034.5c.984-.427,1.97-.856,2.978-1.259l1.112-.206q.067-.66.148-1.312c-2.159-.061-3.868,1.011-5.57,1.826a6.657,6.657,0,0,0-2.369,1.505,13.868,13.868,0,0,0-2.509.279,4.622,4.622,0,0,0,3.032.767C-280.344,170.641-278.6,170.294-278.389,169.113Zm-12.232.163c-.264-.174-.791-.529-1.057-.707-.1.128-.311.382-.415.509-.009-.192-.022-.576-.032-.768a17.543,17.543,0,0,0-3.712-1.665,14.066,14.066,0,0,0-6.5.025c-1.765.348-3.007,1.376-4.521,2.053.046.513.088,1.021.1,1.529a24.574,24.574,0,0,0,3.7-1.99,14.453,14.453,0,0,1,6.42-.487c.026-.118.075-.363.1-.481.218.257.418.521.621.781a26.252,26.252,0,0,1,5.02,2.547C-290.794,170.177-290.714,169.724-290.62,169.276Zm36.478.7a18.218,18.218,0,0,1,1.731-.753c-.352-.005-.7-.01-1.059-.018a4.729,4.729,0,0,1-3.2,1.188c1.285.646,3.475.805,4.37-.311C-252.758,170.055-253.679,170-254.142,169.974Zm13.264-.538c-.51.445.64.864,1.048.5C-239.434,169.5-240.457,169.107-240.878,169.436Zm-1-1.723c-.9-.111-1.782-.274-2.662-.452-.054.3-.161.9-.211,1.2-.766-.291-.316-.76.035-1.151-.417-.02-1.251-.063-1.668-.086a3.222,3.222,0,0,0,.4,1.26c1.329.093,2.661-.131,4-.052.254.043.765.127,1.02.166C-241.264,168.3-241.569,168.008-241.875,167.713Zm-7.283-.47c.129.123.4.372.529.5-.284.293-.571.59-.846.89,1.3.038,3.169-.089,3.046-1.364C-247.34,167.253-248.249,167.249-249.159,167.243Zm-.3.239a10.6,10.6,0,0,0-2.668.943,20.928,20.928,0,0,1,2.256.12C-249.771,168.279-249.567,167.748-249.462,167.482Zm20.48-6.416c-.3.41-.617.807-.951,1.2-.155-.144-.459-.428-.611-.572-.086.138-.251.412-.333.552a6.777,6.777,0,0,0-2.685-.337,12.638,12.638,0,0,1-4.611-1.506,13.5,13.5,0,0,0-5.547-2.395c-2.637-.208-5.6-.273-7.8.99-1.863.768-3.38,2.15-5.65,2.255a2.568,2.568,0,0,1,.449.949c-.374-.17-.725-.362-1.085-.553-.931-.027-1.866-.065-2.8-.037-.94.254-.515,1.686.438.958a.6.6,0,0,1,.944.039l.271.248a12.608,12.608,0,0,0,7.211-2.137,11.639,11.639,0,0,1,8.535-1.227,26.6,26.6,0,0,1,4.4,2.165,8.186,8.186,0,0,0,4.96,1.336,4.893,4.893,0,0,1,2.173-.684q-.663.46-1.287.945c1.507-.183,3.024-.294,4.537-.439A5.668,5.668,0,0,1-228.983,161.066Zm-46.706-1.781a9.582,9.582,0,0,1,7.446.148c.542.305,1.089.6,1.627.9-.263-.77,1.121-.807.86.015.6.131,1.217.248,1.819.361.077.129.23.392.3.524-.636-.17-1.274-.337-1.926-.491a8.917,8.917,0,0,0,3.9,1.706c.061-.132.186-.393.251-.521l-1.428-.217c.257-.111.777-.34,1.038-.451a18.29,18.29,0,0,1-3.717-1.748,14.053,14.053,0,0,0-3.309-1.475c-1.662-.538-3.521-.365-5.288-.478-3.9.169-6.177,2.994-9.891,3.564a10.124,10.124,0,0,1-5.357-.573c-.219-.106-.661-.317-.878-.423-.717-.335-1.4-.7-2.076-1.088-.107.252.139,1.008-.514.722a2.721,2.721,0,0,1-.111-1.216,25.7,25.7,0,0,0-3.893-1.555c-.138.488-.276.977-.442,1.46,2.743.213,4.394,1.985,6.665,2.9a10.157,10.157,0,0,0,2.05.471l-.006.256c2.4-.191,4.839.385,7.168-.189C-279.3,161.255-277.657,160.079-275.688,159.285Zm-31.638,1.944a9.861,9.861,0,0,0,3.448-1.663q-.542-.434-1.1-.864l.013.6-.243.027.005-.613a4.933,4.933,0,0,0-1.262,1.161c-.1-.03-.288-.094-.383-.125-.731.678-2.1.578-2.908,1.164-.016.273-.05.819-.066,1.092a6.885,6.885,0,0,0,2.257-1.452C-307.5,160.723-307.388,161.062-307.326,161.23Zm82.7-.975c.356-.564,1.568.37,1.685-.45a9.366,9.366,0,0,0-.454-1.129c-1.965.459-3.442,1.554-5.193,2.3a13.1,13.1,0,0,1,.68,1.379A6.951,6.951,0,0,0-224.627,160.255Zm-75.117-1.769c.538-.491.726-1.777-.739-1.287-.293.333-.539.689-.8,1.04.022-.211.063-.629.085-.838a4.511,4.511,0,0,0-1.864.411c.123.381.254.762.4,1.138.281-.112.838-.335,1.123-.445C-300.937,158.495-300.338,158.49-299.744,158.486Zm81.368.329c-.981-.749-2.462-.127-3.693-.486a8.1,8.1,0,0,1-.63,1.563c.891.071,1.39-.212,1.506-.847a14.063,14.063,0,0,0,1.831.608C-219.037,159.373-218.7,159.093-218.377,158.814Zm-79.8-1.425c-.49.314.165,1.067.709.673C-297.228,157.763-297.7,157.19-298.181,157.389Zm-.891-.036c-.408.389-.318.626.26.7Q-298.185,157.477-299.072,157.353Z" transform="translate(315.776 -154.282)" />
      </g>
    </g>
  </g>

  <!-- icon-plus -->
  <g id="icon-plus" data-viewbox="0 0 320 320">
      <line class="vertical-line" x1="160" y1="16" x2="160" y2="304"></line>
      <line class="horizontal-line" x1="304" y1="160" x2="16" y2="160"></line>
  </g>

  <!-- icon-tick -->
  <g id="icon-tick" data-viewbox="0 0 71 55">
      <path d="M23.3553 55L0 31.4368L6.86978 24.5059L23.3552 41.138L64.1302 0L71 6.93093L23.3553 55Z"></path>
  </g>

  <!-- icon-thumb-up -->
  <g id="icon-thumb-up" data-viewbox="0 0 105.291 105.291">
    <g transform="translate(923 812.291) rotate(180)">
      <circle cx="52.645" cy="52.645" r="52.645" transform="translate(817.709 707)" fill="#00ada5"/>
      <g transform="translate(842.783 737.217)">
        <path d="M4814.132,2484.1a5.474,5.474,0,0,0,1.052,10.8l0,.023h14.821s-2.9,20.418,6.219,20.418c5.907-1.347,2.625-9.4,4.768-14.165,3-6.073,5.992-7.992,7.159-8.541a.878.878,0,0,0,.511-.792V2464.45a3.425,3.425,0,0,0-1.507-2.306,9.177,9.177,0,0,0-5.86-2.048h-19.684v0a3.726,3.726,0,0,0-2.5,6.412,4.828,4.828,0,0,0-3.094,8.325c-.068,0-.136-.011-.2-.011a4.7,4.7,0,0,0-4.6,4.8A4.8,4.8,0,0,0,4814.132,2484.1Z" transform="translate(-4809.901 -2460.097)" fill="#fff"/>
        <rect width="13.395" height="34.747" rx="6.697" transform="translate(41.749 0)" fill="#fff"/>
      </g>
    </g>
  </g>

  <!-- icon-thumb-down -->
  <g id="icon-thumb-down" data-viewbox="0 0 105.291 105.291">
    <g transform="translate(-817.709 -707)">
      <circle cx="52.645" cy="52.645" r="52.645" transform="translate(817.709 707)" fill="#e4525e"/>
      <g transform="translate(842.783 737.217)">
        <path d="M4814.132,2484.1a5.474,5.474,0,0,0,1.052,10.8l0,.023h14.821s-2.9,20.418,6.219,20.418c5.907-1.347,2.625-9.4,4.768-14.165,3-6.073,5.992-7.992,7.159-8.541a.878.878,0,0,0,.511-.792V2464.45a3.425,3.425,0,0,0-1.507-2.306,9.177,9.177,0,0,0-5.86-2.048h-19.684v0a3.726,3.726,0,0,0-2.5,6.412,4.828,4.828,0,0,0-3.094,8.325c-.068,0-.136-.011-.2-.011a4.7,4.7,0,0,0-4.6,4.8A4.8,4.8,0,0,0,4814.132,2484.1Z" transform="translate(-4809.901 -2460.097)" fill="#fff"/>
        <rect width="13.395" height="34.747" rx="6.697" transform="translate(41.749 0)" fill="#fff"/>
      </g>
    </g>
  </g>

  <!-- icon-radio -->
  <g id="icon-radio" data-viewbox="0 0 24 24">
    <circle cx="12" cy="12" r="10" stroke-width="2" />
  </g>
  
  <!-- icon-checkbox -->
  <g id="icon-checkbox" data-viewbox="0 0 97.6 97.6">
    <rect x="3.8" y="3.8" class="st0" width="90" height="90" stroke-width="7.6056" />
    <path class="st1" d="M37.7,74.3L14.3,50.7l6.9-6.9l16.5,16.6l40.8-41.1l6.9,6.9L37.7,74.3z"/>
  </g>

  <!-- icon-emoji-clap -->
  <g id="icon-emoji-clap" data-viewbox="0 0 71 71">
    <g transform="translate(-99 -2466)">
      <g class="outer" transform="translate(99 2466)" fill="#00ada5" stroke="#00ada5" stroke-width="2">
        <circle cx="35.5" cy="35.5" r="35.5" stroke="none"/>
        <circle cx="35.5" cy="35.5" r="34.5" fill="none"/>
      </g>
      <g transform="translate(106 2473)">
        <g transform="translate(0 0)">
          <circle cx="28.829" cy="28.829" r="28.829" fill="#fff" stroke="#4d4d55" stroke-width="2.5"/>
        </g>
        <g transform="translate(-157.655 -91.931)">
          <g transform="translate(164.655 98.627)">
            <path d="M199.652,130a2.155,2.155,0,0,1-.554,1.463l-6,5.922a2.006,2.006,0,0,1-2.925,0l-2.132-2.053a9.485,9.485,0,0,1-9.8-2.214l-12.957-13.035a2.068,2.068,0,1,1,2.925-2.922l5.529,5.529a.685.685,0,0,0,.908-.236.8.8,0,0,0-.039-1.026l-7.821-7.743a1.9,1.9,0,0,1-.59-1.5,2.185,2.185,0,0,1,.669-1.5,1.87,1.87,0,0,1,1.463-.594,2.323,2.323,0,0,1,1.463.594l7.821,7.9a.749.749,0,0,0,.948-.039.664.664,0,0,0,.079-.908l-8.926-9.008a2.066,2.066,0,1,1,2.922-2.922l9.005,8.926a.767.767,0,0,0,.948-.2c.266-.289.239-.646-.079-1.066l-7.5-7.506a2.066,2.066,0,1,1,2.922-2.922l12.642,12.639c0-.367.01-.712.039-1.026s.066-.712.118-1.184q.157-3.793,1.223-4.9a2.737,2.737,0,0,1,1.935-1.066,1.92,1.92,0,0,1,1.423.672,2.315,2.315,0,0,1,.554,1.577,23.806,23.806,0,0,0,.83,7.506q.984,3.478,1.62,5.057l.236.948a4.958,4.958,0,0,1-.948,3.791l1.263,1.345.236.157A2.452,2.452,0,0,1,199.652,130Zm4.663,0a2.022,2.022,0,0,1-.633,1.463l-6,5.922a2.006,2.006,0,0,1-2.925,0l-2.132-2.053a9.478,9.478,0,0,1-9.8-2.214l-12.957-13.035a2.066,2.066,0,1,1,2.922-2.922l5.529,5.529a.774.774,0,0,0,.99-.236.755.755,0,0,0-.118-1.026l-7.743-7.743a2.095,2.095,0,0,1,0-3,2,2,0,0,1,2.922,0l7.821,7.9a.749.749,0,0,0,.948-.039.731.731,0,0,0,.157-.908l-9.005-9.008a2.066,2.066,0,1,1,2.922-2.922l9.008,8.926a.769.769,0,0,0,.948-.2c.262-.289.236-.646-.079-1.066l-7.506-7.506a2.066,2.066,0,1,1,2.922-2.922l12.721,12.639a3.364,3.364,0,0,1,0-1.026,7.411,7.411,0,0,0,.079-1.184q.157-3.793,1.226-4.9a2.749,2.749,0,0,1,1.974-1.066,1.834,1.834,0,0,1,1.42.672,2.408,2.408,0,0,1,.515,1.577,23.9,23.9,0,0,0,.83,7.506,40.168,40.168,0,0,0,1.7,5.057l.236.948a5.226,5.226,0,0,1-1.026,3.791l1.5,1.5A2.288,2.288,0,0,1,204.315,130Zm-16.83-26.35-.079.082a.219.219,0,0,1-.157-.082l-3.083-3.634a.129.129,0,0,1-.039-.157.617.617,0,0,1,.118-.157l2.292-1.026a.178.178,0,0,1,.2-.039.182.182,0,0,1,.118.2l.79,4.581q0,.236-.157.236Zm6.48-3.4L191.2,104.13a.227.227,0,0,1-.157.079h-.079a.252.252,0,0,1-.157-.236l.315-4.742c0-.049.039-.1.118-.157s.144-.052.2,0l2.368.869a.141.141,0,0,1,.161.157v.157Zm9.481,28.048a2.739,2.739,0,0,1-.475.948l-7.506,7.428a1.994,1.994,0,0,1-.948.472l-1.9-1.817a10.3,10.3,0,0,0,3.476-2.214l1.184-1.184,4.506-4.5a3.141,3.141,0,0,1,.394-.476h0Zm-4.624-23.424a.182.182,0,0,1-.2.118l-4.66.712a.267.267,0,0,1-.239-.118c-.053-.079-.026-.171.079-.279l3.555-3a.274.274,0,0,1,.2-.079q.118,0,.2.157l1.026,2.292A.178.178,0,0,1,198.823,104.881Z" transform="translate(-164.655 -98.627)" opacity="0"/>
          </g>
          <path d="M199.652,127.442a2.154,2.154,0,0,1-.554,1.463l-6,5.923a2.006,2.006,0,0,1-2.925,0l-2.132-2.053a9.485,9.485,0,0,1-9.8-2.214l-12.957-13.035a2.068,2.068,0,1,1,2.925-2.922l5.529,5.529a.685.685,0,0,0,.908-.236.8.8,0,0,0-.039-1.026l-7.821-7.743a1.9,1.9,0,0,1-.59-1.5,2.185,2.185,0,0,1,.669-1.5,1.87,1.87,0,0,1,1.463-.594,2.323,2.323,0,0,1,1.463.594l7.821,7.9a.749.749,0,0,0,.948-.039.664.664,0,0,0,.079-.908l-8.926-9.008a2.066,2.066,0,1,1,2.922-2.922l9.005,8.926a.767.767,0,0,0,.948-.2c.266-.289.239-.646-.079-1.066l-7.5-7.506a2.066,2.066,0,1,1,2.922-2.922l12.642,12.639c0-.367.01-.712.039-1.026s.066-.712.118-1.184q.157-3.793,1.223-4.9a2.737,2.737,0,0,1,1.935-1.066,1.92,1.92,0,0,1,1.423.672,2.315,2.315,0,0,1,.554,1.577,23.806,23.806,0,0,0,.83,7.506q.984,3.478,1.62,5.057l.236.948a4.958,4.958,0,0,1-.948,3.791l1.263,1.345.236.157A2.452,2.452,0,0,1,199.652,127.442Z" transform="translate(0 2.562)" fill="#d2d2d4"/>
          <path d="M201.131,127.442a2.022,2.022,0,0,1-.633,1.463l-6,5.923a2.007,2.007,0,0,1-2.925,0l-2.132-2.053a9.478,9.478,0,0,1-9.8-2.214l-12.957-13.035a2.066,2.066,0,1,1,2.922-2.922l5.529,5.529a.774.774,0,0,0,.99-.236.755.755,0,0,0-.118-1.026l-7.743-7.743a2.095,2.095,0,0,1,0-3,2,2,0,0,1,2.922,0l7.821,7.9a.749.749,0,0,0,.948-.039.731.731,0,0,0,.157-.908l-9.005-9.008a2.066,2.066,0,1,1,2.922-2.922l9.008,8.926a.769.769,0,0,0,.948-.2c.262-.289.236-.646-.079-1.066l-7.506-7.506a2.066,2.066,0,1,1,2.922-2.922l12.721,12.639a3.364,3.364,0,0,1,0-1.026,7.411,7.411,0,0,0,.079-1.184q.157-3.793,1.226-4.9a2.749,2.749,0,0,1,1.974-1.066,1.834,1.834,0,0,1,1.42.672,2.408,2.408,0,0,1,.515,1.577,23.9,23.9,0,0,0,.83,7.506,40.168,40.168,0,0,0,1.7,5.057l.236.948A5.226,5.226,0,0,1,199,124.4l1.5,1.5A2.288,2.288,0,0,1,201.131,127.442Z" transform="translate(3.184 2.562)" fill="#4d4d55"/>
          <path d="M173.96,103.654l-.079.082a.219.219,0,0,1-.157-.082l-3.083-3.634a.129.129,0,0,1-.039-.157.617.617,0,0,1,.118-.157l2.292-1.026a.178.178,0,0,1,.2-.039.182.182,0,0,1,.118.2l.79,4.581q0,.236-.157.236Zm6.48-3.4-2.768,3.873a.227.227,0,0,1-.157.079h-.079a.252.252,0,0,1-.157-.236l.315-4.742c0-.049.039-.1.118-.157s.144-.052.2,0l2.368.869a.141.141,0,0,1,.161.157v.157Zm4.857,4.624a.182.182,0,0,1-.2.118l-4.66.712a.267.267,0,0,1-.239-.118c-.053-.079-.026-.171.079-.279l3.555-3a.274.274,0,0,1,.2-.079q.118,0,.2.157l1.026,2.292A.178.178,0,0,1,185.3,104.881Z" transform="translate(13.526 0)" fill="#3e3e3e"/>
        </g>
      </g>
    </g>
  </g>

  <!-- icon-emoji-heart -->
  <g id="icon-emoji-heart" data-viewbox="0 0 71 71">
    <g transform="translate(-175 -2466)">
      <g class="outer" transform="translate(175 2466)" fill="#00ada5" stroke="#00ada5" stroke-width="2">
        <circle cx="35.5" cy="35.5" r="35.5" stroke="none"/>
        <circle cx="35.5" cy="35.5" r="34.5" fill="none"/>
      </g>
      <g transform="translate(181.482 2472.188)">
        <g transform="translate(0 0)">
          <circle cx="28.869" cy="28.869" r="28.869" fill="#fff" stroke="#4d4d55" stroke-width="2.5"/>
        </g>
        <g transform="translate(13.683 16.481)">
          <path id="Path_258" data-name="Path 258" d="M2462.172,1693.466c.43,0,.886.032,1.375.085,2.97.318,6.384,3.071,6.756,8.294l-.016,1.736c-.436,4.991-4.262,11.115-15.352,18.743-10.947-7.831-14.66-14.024-15-19.022l.016-1.736c.467-5.214,3.93-7.905,6.906-8.169.49-.044.948-.061,1.376-.058,3.436.032,5.071,1.532,6.937,3.8,1.908-2.231,3.57-3.7,7.005-3.669" transform="translate(-2439.931 -1693.338)" fill="#4d4d55"/>
        </g>
      </g>
    </g>
  </g>

  <!-- icon-emoji-laugh -->
  <g id="icon-emoji-laugh" data-viewbox="0 0 71 71">
    <g transform="translate(-252 -2466)">
      <g class="outer" transform="translate(252 2466)" fill="#00ada5" stroke="#00ada5" stroke-width="2">
        <circle cx="35.5" cy="35.5" r="35.5" stroke="none"/>
        <circle cx="35.5" cy="35.5" r="34.5" fill="none"/>
      </g>
      <g transform="translate(57.081 1134.898)">
        <g transform="translate(200.73 1337.872)">
          <circle cx="29.5" cy="29.5" r="29.5" transform="translate(0.27 0.128)" fill="#fff"/>
        </g>
        <g transform="translate(199.919 1337.102)">
          <path d="M2507.6,1683.91a27.333,27.333,0,1,1-19.326,8.005,27.334,27.334,0,0,1,19.326-8.005m0-2.624a29.956,29.956,0,1,0,29.956,29.955,29.955,29.955,0,0,0-29.956-29.955Z" transform="translate(-2477.645 -1681.286)" fill="#4d4d55"/>
          <g transform="translate(6.426 25.576)">
            <path d="M2482.054,1703.456c1.7,13.321,11.586,23.544,23.528,23.544s21.832-10.223,23.53-23.544a62.179,62.179,0,0,0-47.058,0Z" transform="translate(-2482.054 -1698.832)" fill="#4d4d55" opacity="0.195"/>
          </g>
          <g transform="translate(16.763 41.462)">
            <path d="M2489.145,1717.377a21.088,21.088,0,0,0,26.384,0c-3.013-4.644-7.8-7.647-13.192-7.647S2492.158,1712.733,2489.145,1717.377Z" transform="translate(-2489.145 -1709.73)" fill="#4d4d55"/>
          </g>
          <g transform="translate(11.318 11.242)">
            <g transform="translate(23.212)">
              <path d="M2511.691,1689l-10.357,4.405.029,2.163,13.177,5.179.856-2.176-10.519-4.134,7.727-3.286-.914-2.152Z" transform="translate(-2501.334 -1688.998)" fill="#4d4d55"/>
            </g>
            <path id="Path_264" data-name="Path 264" d="M2489.115,1689l-.914,2.152,7.727,3.286-10.519,4.134.855,2.176,13.177-5.179.031-2.163L2489.115,1689Z" transform="translate(-2485.41 -1688.998)" fill="#4d4d55"/>
          </g>
        </g>
      </g>
    </g>
  </g>

  <!-- icon-emoji-cry -->
  <g id="icon-emoji-cry" data-viewbox="0 0 71 71">
    <g transform="translate(-328 -2466)">
      <g class="outer" transform="translate(328 2466)" fill="#00ada5" stroke="#00ada5" stroke-width="2">
        <circle cx="35.5" cy="35.5" r="35.5" stroke="none"/>
        <circle cx="35.5" cy="35.5" r="34.5" fill="none"/>
      </g>
      <g transform="translate(333.563 2471)">
        <ellipse cx="29.5" cy="30" rx="29.5" ry="30" transform="translate(0.437)" fill="#fff"/>
        <g transform="translate(0.005 0.561)">
          <circle id="Ellipse_43" data-name="Ellipse 43" cx="29.956" cy="29.956" r="29.956" fill="none" stroke="#4d4d55" stroke-miterlimit="10" stroke-width="2.3"/>
          <g transform="translate(36.677 27.119)">
            <ellipse cx="4.838" cy="5.072" rx="4.838" ry="5.072" fill="#4d4d55"/>
          </g>
          <g transform="translate(13.558 27.119)">
            <ellipse cx="4.838" cy="5.072" rx="4.838" ry="5.072" fill="#4d4d55"/>
          </g>
          <g transform="translate(10.296 20.35)">
            <path d="M2678.3,1700.977l-2.2-.783a8.048,8.048,0,0,1,4.323-4.532,8.761,8.761,0,0,1,6.822-.184l-.867,2.17a6.411,6.411,0,0,0-4.992.144A5.707,5.707,0,0,0,2678.3,1700.977Z" transform="translate(-2676.093 -1694.875)" fill="#4d4d55"/>
          </g>
          <g transform="translate(38.655 20.35)">
            <path d="M2704.49,1700.977a5.705,5.705,0,0,0-3.083-3.184,6.412,6.412,0,0,0-4.993-.144l-.867-2.17a8.761,8.761,0,0,1,6.822.184,8.051,8.051,0,0,1,4.323,4.532Z" transform="translate(-2695.548 -1694.875)" fill="#4d4d55"/>
          </g>
          <g transform="translate(19.7 43.887)">
            <path d="M2684.073,1716.5l-1.528-1.77a16.049,16.049,0,0,1,20.511,0l-1.527,1.77a13.71,13.71,0,0,0-17.456,0Z" transform="translate(-2682.545 -1711.023)" fill="#4d4d55"/>
          </g>
          <g transform="translate(48.354 30.661)">
            <path d="M2708.624,1717.568c-1.034-1.343-3.966-5.982-4.483-9.444-.519,3.462-3.451,8.1-4.485,9.444a5.654,5.654,0,1,0,8.968,0Z" transform="translate(-2698.486 -1708.124)" fill="#4d4d55"/>
          </g>
        </g>
      </g>
    </g>
  </g>

  <!-- icon-emoji-think -->
  <g id="icon-emoji-think" data-viewbox="0 0 71 71">
    <g transform="translate(-404 -2466)">
      <g class="outer" transform="translate(404 2466)" fill="#00ada5" stroke="#00ada5" stroke-width="2">
        <circle cx="35.5" cy="35.5" r="35.5" stroke="none"/>
        <circle cx="35.5" cy="35.5" r="34.5" fill="none"/>
      </g>
      <g transform="translate(56 1134)">
        <g transform="translate(413.132 1397.014) rotate(180)">
          <circle id="Ellipse_40" data-name="Ellipse 40" cx="29.956" cy="29.956" r="29.956" fill="#fff" stroke="#4d4d55" stroke-width="2.5"/>
        </g>
        <g transform="translate(371.413 1358.204)">
          <path d="M96.868,297.466a3.365,3.365,0,0,1-6.184,0,6.866,6.866,0,0,1-.484-3.3c.41-4.166,6.742-4.166,7.153,0A6.889,6.889,0,0,1,96.868,297.466Z" transform="translate(-90.167 -291.042)" fill="#4d4d55"/>
          <path d="M105.351,297.466a3.364,3.364,0,0,0,6.183,0,6.849,6.849,0,0,0,.485-3.3c-.41-4.166-6.742-4.166-7.153,0A6.889,6.889,0,0,0,105.351,297.466Z" transform="translate(-83.656 -291.042)" fill="#4d4d55"/>
        </g>
        <g transform="translate(365.93 1373.522)">
          <path d="M107.314,308.386c-10.3,4.405-11.549,4.647-13.17,4.448-3.493-.435-2.221-4.389-2.262-6.6-.052-2.985-2.646-3.31-3.878-1.96s-2.664,11.995-2.766,13.808c-.047,7.455,6.331,11.543,17.458,8.577,3.228-.865,3.14-4.255,1.843-4.441,1.747-1.48,1.165-3.691-.336-3.857,1.861-1.28,1.7-3.289.407-4,3.412-1.661,5.279-2.661,5.894-3.526C111.42,309.536,110.41,307.066,107.314,308.386Z" transform="translate(-84.646 -302.798)" fill="#d2d2d4"/>
          <path d="M110.715,308.007c-2.139-1.519-4.221.623-12.9,3.884-2.425.862-4.893,1.366-5.271-1.207-.243-1.75.5-3.691.056-5.423a2.879,2.879,0,0,0-5.369-.7c-.81,1.476-1.563,7.045-2.136,10.753a12.68,12.68,0,0,0,.588,7.35c1.644,3.685,5.163,5.339,9.124,5.618a32.092,32.092,0,0,0,8.152-.795c2.912-.663,3.9-3.314,2.951-4.845-.245-.419-.273,0,.145-.693a2.722,2.722,0,0,0-.3-3.353c-.236-.2-.226-.05.006-.322a2.708,2.708,0,0,0,.073-3.519,28.247,28.247,0,0,0,4.558-2.458,2.883,2.883,0,0,0,1.309-1.976A2.459,2.459,0,0,0,110.715,308.007Zm-9.286,7.654a.478.478,0,0,0,.414.86c.994-.427,1.983-.856,2.971-1.3a1.833,1.833,0,0,1-.178,2.165,7.716,7.716,0,0,1-2.593,1.8.388.388,0,0,0,.2.737,5.745,5.745,0,0,0,2.427-.729,1.633,1.633,0,0,1,.15,2.037,5.824,5.824,0,0,1-2.494,1.951.386.386,0,0,0,.2.737,5.189,5.189,0,0,0,2.285-.732,2.41,2.41,0,0,1-.368,1.873,3.376,3.376,0,0,1-1.8,1.22,20.006,20.006,0,0,1-7.761,1.025c-5.755-.457-8.732-3.778-8.853-8.362-.067-1.754.239-3.044.929-6.945.359-1.966.986-5.874,1.483-6.712a1.609,1.609,0,0,1,2.119-.664c1.993,1.21-.626,6.03,1.77,8.145a5.2,5.2,0,0,0,3.976.7c2.767-.527,8.359-2.938,11.555-4.258,1.727-.692,2.518.036,2.432.935C110.289,311.345,106.586,312.852,101.43,315.66Z" transform="translate(-84.825 -303.013)" fill="#4d4d55" stroke="#4d4d55" stroke-width="0.5"/>
        </g>
        <path d="M13183.047,1368.75s1.833-5.1,10.276-7.706" transform="translate(-12814 -12)" fill="none" stroke="#4d4d55" stroke-width="2.3"/>
        <path d="M13203.487,1366s4.886-2.893,12.541,2.155" transform="translate(-12814 -12)" fill="none" stroke="#4d4d55" stroke-width="2.3"/>
        <path d="M13190.246,1388.522s5.978-7.854,11.265-4.88,7.6,4.94,14.249,0" transform="translate(-12814 -12)" fill="none" stroke="#4d4d55" stroke-width="2.5"/>
      </g>
    </g>
  </g>

</svg>